<?xml version="1.0" standalone="no"?>
<!DOCTYPE svg PUBLIC "-//W3C//DTD SVG 20010904//EN"
 "http://www.w3.org/TR/2001/REC-SVG-20010904/DTD/svg10.dtd">
<svg version="1.0" xmlns="http://www.w3.org/2000/svg"
 width="260.000000pt" height="260.000000pt" viewBox="0 0 260.000000 260.000000"
 preserveAspectRatio="xMidYMid meet">
<metadata>
Created by potrace 1.11, written by Peter Selinger 2001-2013
</metadata>
<g transform="translate(0.000000,260.000000) scale(0.100000,-0.100000)"
fill="#000000" stroke="none">
<path d="M90 1310 l0 -560 373 0 372 0 0 100 0 100 -262 0 -263 0 0 130 0 130
240 0 239 0 -1 100 0 100 -239 0 -239 0 0 130 0 130 260 0 259 0 0 100 0 100
-369 0 -370 0 0 -560z"/>
<path d="M1595 1813 c3 -32 7 -76 10 -98 2 -22 7 -67 10 -100 3 -33 8 -78 10
-100 6 -46 12 -106 20 -190 12 -127 26 -254 30 -290 2 -16 7 -61 10 -100 4
-38 9 -81 10 -95 2 -14 4 -40 4 -57 l1 -33 98 0 99 0 43 118 c23 64 53 144 66
177 12 33 31 93 40 133 10 39 20 72 24 72 3 0 12 -28 19 -62 7 -35 41 -146 75
-248 l63 -185 96 -3 97 -3 1 33 c1 18 2 44 4 58 1 14 6 59 10 100 4 41 8 82
10 90 2 8 6 53 10 100 3 47 8 92 10 100 2 8 7 49 10 90 4 41 8 86 10 100 3 21
10 100 20 200 3 32 14 140 21 203 l5 47 -100 0 c-56 0 -101 -3 -102 -7 -4 -34
-8 -75 -14 -183 -4 -69 -9 -132 -10 -140 -2 -8 -6 -64 -10 -125 -7 -103 -10
-153 -15 -265 l-2 -45 -17 70 c-10 39 -37 134 -61 213 l-43 142 -83 0 -83 0
-51 -161 c-29 -89 -54 -175 -57 -191 -12 -75 -20 -70 -22 12 -1 47 -3 96 -5
110 -3 14 -7 68 -11 120 -3 52 -8 111 -10 130 -2 19 -6 78 -10 130 -4 52 -9
104 -10 115 -1 11 -3 32 -4 48 l-1 27 -110 0 -111 0 6 -57z"/>
<path d="M1193 1535 c-89 -39 -82 -179 12 -215 90 -34 185 22 185 110 0 95
-99 148 -197 105z"/>
<path d="M1198 959 c-34 -13 -68 -67 -68 -108 0 -95 97 -148 195 -107 83 35
86 169 5 211 -33 17 -91 18 -132 4z"/>
</g>
</svg>
